<svg xmlns="http://www.w3.org/2000/svg" width="580" height="580" viewBox="0 0 580 580"><title>ur</title><g id="ur_ramme" data-name="ur ramme"><circle cx="290" cy="289" r="256" fill="#fff" opacity="0.5"/><path d="M358.2,70.5c-160.1,0-290,129.8-290,290s129.9,290,290,290,290-129.8,290-290S518.4,70.5,358.2,70.5Zm0,546c-141.3,0-256-114.6-256-256s114.7-256,256-256,256,114.6,256,256S499.6,616.5,358.2,616.5Z" transform="translate(-68.3 -70.5)"/></g><g id="prik_i_midten" data-name="prik i midten"><circle cx="288.8" cy="290.5" r="5"/></g><g id="minut_viser" data-name="minut viser"><path d="M351.5,360l7-232.5,2,232.5a4.6,4.6,0,0,1-4.5,4.6,4.5,4.5,0,0,1-4.5-4.5Z" transform="translate(-68.3 -70.5)"/></g><g id="time_viser" data-name="time viser"><path d="M358.1,355l141.4,7-141.6,4a5.5,5.5,0,0,1-.3-11Z" transform="translate(-68.3 -70.5)"/></g></svg>
