<svg xmlns="http://www.w3.org/2000/svg" xmlns:xlink="http://www.w3.org/1999/xlink" viewBox="0 0 1349.52 695"><defs><style>.cls-1,.cls-16,.cls-18,.cls-19,.cls-7,.cls-8{fill:none;}.cls-2{fill:#eb9bb6;}.cls-3{fill:#f7be9f;}.cls-4{fill:#badef6;}.cls-5,.cls-6{fill:#9dbcce;}.cls-6,.cls-7{stroke:#7e9daa;}.cls-16,.cls-18,.cls-19,.cls-6,.cls-7,.cls-8{stroke-miterlimit:10;}.cls-19,.cls-8{stroke:#443c2d;}.cls-16,.cls-18,.cls-19,.cls-8{stroke-linecap:round;}.cls-8{stroke-width:0.25px;}.cls-9{fill:#878584;}.cls-10{fill:#eff4f4;}.cls-11{fill:#cbd3de;}.cls-12{fill:#b6b1ae;}.cls-13{fill:#fccaa9;}.cls-14{fill:#e58fb2;}.cls-15{fill:#5da3af;}.cls-16{stroke:#e58fb2;stroke-width:3px;}.cls-17{fill:#44190c;}.cls-18{stroke:#352720;}.cls-20{fill:#f4455f;}.cls-21{fill:#dd1505;}.cls-22{fill:#fff;}</style><symbol id="st1" data-name="st1" viewBox="0 0 270 695"><rect class="cls-1" width="270" height="695"/><g id="hair_copy" data-name="hair copy"><path class="cls-2" d="M122.24,22.37c-2.6,0-46.45,0-54.42,19.56-3.13,7.69,2.11,11.45-1.7,20.4-4.66,11-15,12-24.66,19.56-2.22,1.74-3.4,21.26,17.85,36.57-20.4,11.91-34.74,26.88-33.16,28.91,10.79,13.89,35.1,6.62,37.42,15.31,3.08,11.54-38.72,27.8-35.72,42.52,1.82,8.94,18.89,9.22,19.56,17,1,11.62-36.33,18.85-35.72,31.46.22,4.51,5.09,5.63,24.66,20.41,14.73,11.12,14.46,12.36,19.56,15.31,15.75,9.1,32.14,5.33,48.48,3.4,52.71-6.21,58.79,12.31,97.79,1.7,22.35-6.08,46.93-19.39,45.92-30.61-1-10.92-25.77-15.52-24.66-23s27.31-6.39,28.91-14.46c1.89-9.48-32.62-19.32-31.46-30.61,1.26-12.2,42.7-12.58,44.22-24.66,1.65-13.09-45.51-24.25-44.22-39.12,1.09-12.63,35.87-13.9,38.27-28.07,1.72-10.2-25.36-11.34-34.87-33.16C218.68,58,224,50,216.64,43.63c-10.09-8.77-26.24,3.91-19.56-.85,3.82-2.73,5.56-14.71-9.36-23-4-2.21-13.13,2.52-26.36,5.11C145,28.11,141.8,22.54,122.24,22.37Z"/></g><g id="legs_copy" data-name="legs copy"><rect class="cls-3" x="110.47" y="311.22" width="54.33" height="22.75"/><path class="cls-3" d="M156.75,609s10.07,21.92,5,38.93,18.47-1.51,18.47-1.51-12.93-13-2.1-40.24S156.75,609,156.75,609Z"/><path class="cls-3" d="M90.26,614.15s11,20.22,6.09,37.6,14.74,0,14.74,0l3.78-45.53Z"/><path class="cls-4" d="M147.1,610.33c4.26,2,31.7,2,38.22-1.1s2.27-10.21,0-11.91-23.24-3.68-34.86,0S147.1,610.33,147.1,610.33Z"/><path class="cls-4" d="M83.74,613.07c4.25,2,31.7,2,38.22-1.1s2.27-10.2,0-11.9-23.24-3.69-34.87,0S83.74,613.07,83.74,613.07Z"/><path class="cls-5" d="M104.29,341.07s-20.6,34.21-25.7,84.67c0,18.42,2.55,73.13,4.82,91.27-.57,10.21-2.55,61.8,2,84.47.9,4.49,38,0,38,0s6.23-114.58,7.93-126.14c.86-5.8.15-15.59,1.14-30.9.73-11.3,3.4-35.14,2.83-39.68s.29,23,3.5,29.76c3.39,7.2,3.59,47.91,3.59,54.15s3.39,46.62,4.82,72.56a355.82,355.82,0,0,1,0,39.12s34.58,1.13,37.42-.57,19.59-158.55,12.66-183.95c-2.84-32.6-20-74.76-20-74.76Z"/><polygon class="cls-6" points="176.13 341.17 103.94 341.17 109.56 330.28 164.45 330.28 176.13 341.17"/><path class="cls-7" d="M90.26,372.92s27.67-6.62,29.91-31.85"/><circle class="cls-8" cx="138.66" cy="324.35" r="1.76"/><path class="cls-7" d="M185.35,371.66h0c-8.87-3.61-23.35-16.39-24.61-30.59"/><polygon class="cls-3" points="180.26 491.88 156.07 497.93 160.74 501.7 153.8 509.64 162.5 509.64 156.07 515.31 180.26 507.37 174.51 505.11 180.26 500.95 174.51 497.55 180.26 491.88"/><polygon class="cls-3" points="91.44 503.59 114.5 496.41 110.47 503.59 116.76 507.37 112.61 512.66 116.76 515.31 92.2 520.98 102.39 515.31 90.26 515.31 100.89 508.7 91.44 503.59"/><path class="cls-9" d="M75.5,690.25s10.09,3.22,16.24,1.16c5.49-2.95,25.84-16.94,28.07-21.73s6.28-9.77-4.61-10.35-17.48,16.45-22.27,17.9-18.21,4-18.21,4-5.42,5.59.78,9"/><path class="cls-10" d="M91.61,657.22s-.31-13.64,6.08-12.6,6.62,14.13,6.62,14.13,2.33-6.24,3.49-7.84,8.23-5.34,10.32,6.41-20,25.45-20,25.45S86.64,669.71,83.2,669.5,91.61,657.22,91.61,657.22Z"/><path d="M83.88,666.18s-11.67,7.31-9.16,15,14.28,4.5,19.19,4c5.19-2.54,3.47-.88,7.12-4.41.51-6.3-17.15-14.61-17.15-14.61"/><path class="cls-9" d="M85.49,664s9,3.15,9.54,5.08,3.18-2.32,3.18-2.32-9.46-5.44-10.43-5.46S85.49,664,85.49,664Z"/><path class="cls-9" d="M89.4,659.56s8.67,2.22,9.95,4.46,2.58-2.55,2.58-2.55-8.43-4.35-10.32-4.25S89.4,659.56,89.4,659.56Z"/><polygon class="cls-7" points="124.74 330.19 121.53 330.19 120.02 340.13 123.04 340.13 124.74 330.19"/><polygon class="cls-7" points="156.02 330.66 159.23 330.66 160.74 340.6 157.72 340.6 156.02 330.66"/><polyline class="cls-7" points="143.51 330.19 145 386.05 140.03 392"/><line class="cls-7" x1="133.72" y1="330.66" x2="133.72" y2="378.68"/><circle class="cls-11" cx="138.66" cy="335.73" r="1.76"/><path class="cls-9" d="M197.69,686.58s-10.1,3.23-16.25,1.16C176,684.8,155.61,670.81,153.37,666s-6.27-9.77,4.62-10.35,17.48,16.44,22.27,17.89,18.2,4,18.2,4,5.43,5.59-.77,9"/><path class="cls-10" d="M181.58,653.56s.31-13.65-6.09-12.6-6.61,14.13-6.61,14.13-2.33-6.25-3.49-7.85-8.23-5.34-10.32,6.42,20,25.45,20,25.45S186.55,666,190,665.83,181.58,653.56,181.58,653.56Z"/><path d="M189.31,662.52s11.67,7.3,9.15,15-14.28,4.5-19.18,4c-5.19-2.53-3.47-.87-7.12-4.41-.51-6.3,17.15-14.6,17.15-14.6"/><path class="cls-9" d="M187.7,660.38s-9,3.14-9.55,5.08-3.17-2.33-3.17-2.33,9.46-5.44,10.43-5.45S187.7,660.38,187.7,660.38Z"/><path class="cls-9" d="M183.79,655.89s-8.67,2.22-9.95,4.46-2.59-2.54-2.59-2.54,8.44-4.35,10.33-4.25S183.79,655.89,183.79,655.89Z"/></g><g id="body_copy" data-name="body copy"><path class="cls-3" d="M120.26,160.41s4,24.38,2,27.78-7.37,11.62-10.77,13.61-21,5.39-25.95,12.19-11.75,14.17-12,24.09,0,83.91,1.42,87,2,16.77,23.29,44.26c12-6.61,14.55-11.15,14.55-11.15l-21.4-35.66s10.77-79.37,10.77-82.78,17.55-5.1,20.68-1.13,18.44,17.57,20.14,17S167.6,239.5,167.6,239.5l7.94-1.13s-.29,30.89,1.41,35.71,4.54,26.93,6,30.9,0,58.68,0,58.68-8,11.13-9.08,17.86c-1.18,7.36,0,20.41,4.82,22.67,3.41-4-1.05-10.63,3.26-20.83-.34,10.77,3,33.05,4.82,32.46s3.83-22.12,3-25.23.84,25.08,4.25,25.22,2.13-28.06,2.13-28.06-3.69-24.37-3.83-27.21c-.28-6,4-27.28,6-33.45,3.09-9.87,2.84-57.83,2.84-57.83l3.12-45.07s-2.56-14.17-12.76-16.72-21.83-4-25.8-6.8-14.92-40.82-9.16-43.66S120.26,160.41,120.26,160.41Z"/><path class="cls-12" d="M110,315s49.7,3.78,55.84,1.51c4-10.34,11.2-68.78,11.81-77.48-.75-2.65.06-35.53.06-35.53h-5.35l-.75,32s-13.37-8.6-30.31,12.95c-5.69-15.22-19.91-18.11-27.24-14.74-.85-11-1.83-24-3.88-32.48-7.12,3.82-5.47,4.13-5.47,4.13s4.91,26.08,2.08,29.48-7,22.3-2.08,35.53S110,315,110,315Z"/></g><g id="face_copy" data-name="face copy"><path class="cls-13" d="M95.6,96.35s-6.26-6.24-10.08-5.1-6.36,15-3.81,21a40.37,40.37,0,0,0,6.43,10.21s4.91.57,7.46-11.62S95.6,96.35,95.6,96.35Z"/><path class="cls-13" d="M185.46,93.8s9.09-10.77,12.62-8.22,1.86,18.14,0,18.71S197,112.37,192.8,117s-9-6.52-9-6.52Z"/><ellipse class="cls-13" cx="140.1" cy="103.15" rx="50.46" ry="67.75"/><rect class="cls-14" x="122.24" y="1.96" width="39.12" height="22.96" rx="11.48"/><path class="cls-14" d="M92.63,102.3S93.77,56.38,118.43,53s50.71-3.68,56.54.85c4.38,4,14.89,27.21,14.89,37.42,3.25-7.66,8.22-5.67,8.22-5.67s-7.39-36-13.19-40.82c-5.26-3.12-27.63-11.34-32.73-11.34s-17.62-2-29.76,2.55c-12.76,4.82-24,11.22-27.85,17.86-3.9,6.8-11.21,23.52-8.4,32.88A77,77,0,0,0,92.63,102.3Z"/><rect class="cls-15" x="124.68" y="24.92" width="33.17" height="8.05"/><path class="cls-16" d="M151.72,86.42s7.94-9.42,18.15-7.54,11.9,7.54,11.9,7.54"/><path class="cls-16" d="M99.54,88.63s7.94-9.42,18.14-7.53,11.91,7.53,11.91,7.53"/><ellipse class="cls-17" cx="115.44" cy="99.19" rx="8.69" ry="7.18"/><ellipse class="cls-17" cx="165.8" cy="96.47" rx="8.69" ry="7.18"/><path class="cls-18" d="M127.54,99.94a13.14,13.14,0,0,0-13-7.94c-9.71.57-9,6.43-10.66,6.81a4.7,4.7,0,0,1-3.4-1s7.84,7.18,9.91,7.18"/><path class="cls-18" d="M151.72,97.48s5.86-7.37,12.48-8.12,11.9,4.91,12.66,4.91a15.3,15.3,0,0,0,3-.88s-6,8.14-7.91,8.14"/><path class="cls-19" d="M131.5,123.19s-2.07,3.59-1.13,5.85,6,1,6,1,4.25,1.46,6.23.38,5,.51,5.67.51c1.66,0,5.67-3.16,3.4-6.18"/><path class="cls-20" d="M123.11,141.08s3.67,7.71,8.49,9.7a20.8,20.8,0,0,0,11.34,1.41c3.12-.47,7-1.5,9.46-5a38.19,38.19,0,0,0,3.82-7.95Z"/><path class="cls-21" d="M123.11,141.08s6.92-2.81,10.09-5c3.78-2.65,6.71,3,6.71,3s.76-3.72,3.69-3.72,5.83,2.5,7.18,2.77c1.17.24,3.5,1.43,5.67.67-.69,1.37-1.71,3.7-3.21,4.06s-10,1.51-13.14,1.8-9.31.37-11.62-.29S123.49,142,123.11,141.08Z"/></g></symbol><symbol id="st2" data-name="st2" viewBox="0 0 270 695"><rect class="cls-1" width="270" height="695"/><g id="hair_copy_2" data-name="hair copy 2"><path class="cls-2" d="M113.61,23.94c-2.6.15-46.36,3.14-53,23.21C58,55,63.53,58.43,60.33,67.63c-3.91,11.23-14.19,13-23.28,21.19-2.09,1.89-1.94,21.44,20.31,35.27-19.55,13.26-32.84,29.17-31.12,31.1,11.7,13.12,35.47,4.21,38.37,12.73,3.86,11.3-36.73,30.37-32.74,44.85,2.42,8.79,19.47,7.91,20.67,15.64,1.79,11.52-35,21.28-33.49,33.82.52,4.48,5.45,5.27,26,18.68C60.49,291,60.3,292.25,65.59,294.85c16.33,8,32.43,3.13,48.6.1,52.16-9.78,59.49,8.28,97.68-5,21.89-7.58,45.5-22.53,43.73-33.66-1.72-10.83-26.77-13.74-26.16-21.23s26.81-8.23,27.86-16.39c1.23-9.59-33.87-17.06-33.48-28.41.43-12.25,41.75-15.45,42.44-27.61.76-13.17-47-21.1-46.77-36,.23-12.67,34.84-16.31,36.27-30.6,1-10.3-26.08-9.59-37-30.72-6.47-12.46-1.7-20.75-9.48-26.63-10.66-8-25.92,5.69-19.57.49,3.62-3,4.54-15-10.9-22.27-4.14-1.94-12.94,3.4-25.95,6.88C136.72,28.12,133.12,22.78,113.61,23.94Z"/></g><g id="legs_copy_2" data-name="legs copy 2"><rect class="cls-3" x="110.47" y="311.39" width="54.33" height="22.75"/><path class="cls-3" d="M156.75,609.22s10.07,21.92,5,38.93,18.47-1.52,18.47-1.52-12.93-13-2.1-40.24S156.75,609.22,156.75,609.22Z"/><path class="cls-3" d="M90.26,614.33s11,20.21,6.09,37.6,14.74,0,14.74,0l3.78-45.54Z"/><path class="cls-4" d="M147.1,610.5c4.26,2,31.7,2,38.22-1.1s2.27-10.2,0-11.9-23.24-3.69-34.86,0S147.1,610.5,147.1,610.5Z"/><path class="cls-4" d="M83.74,613.25c4.25,2,31.7,2,38.22-1.1s2.27-10.21,0-11.91-23.24-3.68-34.87,0S83.74,613.25,83.74,613.25Z"/><path class="cls-5" d="M104.29,341.25s-20.6,34.2-25.7,84.66c0,18.42,2.55,73.13,4.82,91.28-.57,10.2-2.55,61.79,2,84.47.9,4.48,38,0,38,0s6.23-114.59,7.93-126.14c.86-5.81.15-15.59,1.14-30.9.73-11.3,3.4-35.15,2.83-39.69s.29,23,3.5,29.77c3.39,7.2,3.59,47.9,3.59,54.14s3.39,46.62,4.82,72.57a355.67,355.67,0,0,1,0,39.11s34.58,1.14,37.42-.56,19.59-158.55,12.66-184c-2.84-32.6-20-74.75-20-74.75Z"/><polygon class="cls-6" points="176.13 341.34 103.94 341.34 109.56 330.46 164.45 330.46 176.13 341.34"/><path class="cls-7" d="M90.26,373.1s27.67-6.63,29.91-31.85"/><circle class="cls-8" cx="138.66" cy="324.52" r="1.76"/><path class="cls-7" d="M185.35,371.83h0c-8.87-3.61-23.35-16.39-24.61-30.58"/><polygon class="cls-3" points="180.26 492.05 156.07 498.1 160.74 501.88 153.8 509.81 162.5 509.81 156.07 515.48 180.26 507.55 174.51 505.28 180.26 501.12 174.51 497.72 180.26 492.05"/><polygon class="cls-3" points="91.44 503.77 114.5 496.59 110.47 503.77 116.76 507.55 112.61 512.84 116.76 515.48 92.2 521.15 102.39 515.48 90.26 515.48 100.89 508.87 91.44 503.77"/><path class="cls-9" d="M75.5,690.42s10.09,3.22,16.24,1.16c5.49-2.94,25.84-16.93,28.07-21.72s6.28-9.78-4.61-10.35S97.72,676,92.93,677.4s-18.21,4-18.21,4-5.42,5.59.78,9"/><path class="cls-10" d="M91.61,657.4s-.31-13.65,6.08-12.61,6.62,14.14,6.62,14.14,2.33-6.25,3.49-7.85,8.23-5.34,10.32,6.41-20,25.45-20,25.45S86.64,669.88,83.2,669.67,91.61,657.4,91.61,657.4Z"/><path d="M83.88,666.35s-11.67,7.31-9.16,15,14.28,4.5,19.19,4c5.19-2.53,3.47-.88,7.12-4.41.51-6.3-17.15-14.61-17.15-14.61"/><path class="cls-9" d="M85.49,664.22s9,3.14,9.54,5.07S98.21,667,98.21,667s-9.46-5.44-10.43-5.45S85.49,664.22,85.49,664.22Z"/><path class="cls-9" d="M89.4,659.73s8.67,2.22,9.95,4.46,2.58-2.55,2.58-2.55-8.43-4.35-10.32-4.24S89.4,659.73,89.4,659.73Z"/><polygon class="cls-7" points="124.74 330.36 121.53 330.36 120.02 340.3 123.04 340.3 124.74 330.36"/><polygon class="cls-7" points="156.02 330.84 159.23 330.84 160.74 340.78 157.72 340.78 156.02 330.84"/><polyline class="cls-7" points="143.51 330.36 145 386.22 140.03 392.18"/><line class="cls-7" x1="133.72" y1="330.84" x2="133.72" y2="378.85"/><circle class="cls-11" cx="138.66" cy="335.9" r="1.76"/><path class="cls-9" d="M197.69,686.75s-10.1,3.23-16.25,1.17C176,685,155.61,671,153.37,666.19s-6.27-9.77,4.62-10.35,17.48,16.45,22.27,17.89,18.2,4,18.2,4,5.43,5.59-.77,9"/><path class="cls-10" d="M181.58,653.73s.31-13.64-6.09-12.6-6.61,14.13-6.61,14.13-2.33-6.24-3.49-7.84-8.23-5.34-10.32,6.41,20,25.45,20,25.45S186.55,666.22,190,666,181.58,653.73,181.58,653.73Z"/><path d="M189.31,662.69s11.67,7.31,9.15,15-14.28,4.5-19.18,4c-5.19-2.54-3.47-.88-7.12-4.41-.51-6.3,17.15-14.61,17.15-14.61"/><path class="cls-9" d="M187.7,660.55s-9,3.15-9.55,5.08-3.17-2.32-3.17-2.32,9.46-5.44,10.43-5.46S187.7,660.55,187.7,660.55Z"/><path class="cls-9" d="M183.79,656.07s-8.67,2.22-9.95,4.46-2.59-2.55-2.59-2.55,8.44-4.35,10.33-4.25S183.79,656.07,183.79,656.07Z"/></g><g id="body_copy_2" data-name="body copy 2"><path class="cls-3" d="M120.26,160.59s4,24.37,2,27.78S114.87,200,111.47,202s-21,5.39-25.95,12.19-11.75,14.17-12,24.1,0,83.9,1.42,87,2,16.77,23.29,44.27c12-6.62,14.55-11.15,14.55-11.15l-21.4-35.67s10.77-79.37,10.77-82.77,17.55-5.11,20.68-1.14,18.44,17.58,20.14,17,24.66-16.16,24.66-16.16l7.94-1.13s-.29,30.9,1.41,35.72,4.54,26.93,6,30.89,0,58.68,0,58.68-8,11.13-9.08,17.86c-1.18,7.36,0,20.41,4.82,22.68,3.41-4-1.05-10.63,3.26-20.84-.34,10.77,3,33.05,4.82,32.46s3.83-22.11,3-25.23.84,25.08,4.25,25.23,2.13-28.06,2.13-28.06-3.69-24.37-3.83-27.22c-.28-5.95,4-27.28,6-33.45,3.09-9.87,2.84-57.82,2.84-57.82l3.12-45.07s-2.56-14.18-12.76-16.73-21.83-4-25.8-6.8-14.92-40.82-9.16-43.65S120.26,160.59,120.26,160.59Z"/><path class="cls-12" d="M110,315.17s49.7,3.78,55.84,1.51c4-10.34,11.2-68.78,11.81-77.48-.75-2.64.06-35.53.06-35.53h-5.35l-.75,32s-13.37-8.59-30.31,13c-5.69-15.21-19.91-18.11-27.24-14.74-.85-11-1.83-24-3.88-32.48-7.12,3.83-5.47,4.13-5.47,4.13s4.91,26.08,2.08,29.48-7,22.3-2.08,35.53S110,315.17,110,315.17Z"/></g><g id="face_copy_2" data-name="face copy 2"><path class="cls-13" d="M92.05,99.56s-6.67-5.8-10.39-4.4-5.33,15.42-2.38,21.18a40.47,40.47,0,0,0,7.11,9.75s4.93.23,6.65-12.11S92.05,99.56,92.05,99.56Z"/><path class="cls-13" d="M181.53,90.9s8.34-11.36,12-9.06,3.08,18,1.27,18.67-.56,8.14-4.4,13.08S181,107.7,181,107.7Z"/><ellipse class="cls-13" cx="136.92" cy="103.32" rx="50.46" ry="67.75" transform="translate(-6.71 9.55) rotate(-3.9)"/><path class="cls-14" d="M141.35,24.6l-16.12,1.1A11.51,11.51,0,0,1,113,15h0A11.52,11.52,0,0,1,123.67,2.79l16.12-1.1A11.52,11.52,0,0,1,152,12.37h0A11.51,11.51,0,0,1,141.35,24.6Z"/><path class="cls-14" d="M89.5,105.7s-2-45.89,22.38-51,50.35-7.13,56.47-3c4.64,3.66,16.71,26.14,17.4,36.32,2.72-7.86,7.82-6.22,7.82-6.22S183.74,46.43,177.63,42c-5.46-2.76-28.33-9.44-33.42-9.09s-17.72-.83-29.52,4.57c-12.4,5.67-23.22,12.83-26.57,19.71C84.69,64.26,78.54,81.43,82,90.59A77.08,77.08,0,0,0,89.5,105.7Z"/><polygon class="cls-15" points="149.85 32.09 116.76 34.35 116.21 26.32 149.3 24.06 149.85 32.09"/><path class="cls-16" d="M147.37,85.83s7.28-9.94,17.59-8.75,12.39,6.71,12.39,6.71"/><path class="cls-16" d="M95.46,91.59s7.28-9.94,17.59-8.75,12.39,6.71,12.39,6.71"/><ellipse class="cls-17" cx="112.04" cy="101.04" rx="8.69" ry="7.18" transform="translate(-6.61 7.86) rotate(-3.9)"/><ellipse class="cls-17" cx="162.1" cy="94.9" rx="8.69" ry="7.18" transform="translate(-6.08 11.25) rotate(-3.9)"/><path class="cls-18" d="M124.16,101a13.12,13.12,0,0,0-13.48-7c-9.64,1.23-8.49,7-10.16,7.52a4.73,4.73,0,0,1-3.46-.72s8.3,6.64,10.38,6.49"/><path class="cls-18" d="M148.13,96.87s5.34-7.75,11.89-9,12.21,4.09,13,4a15,15,0,0,0,3-1.09s-5.45,8.54-7.34,8.66"/><path class="cls-19" d="M129.7,123.89s-1.83,3.72-.73,5.92,6.1.53,6.1.53,4.34,1.18,6.25,0,5,.17,5.69.12c1.65-.11,5.44-3.53,3-6.4"/><path d="M125.65,142.87s26.45-1.66,28.24-3.2-4.46,8.61-6.23,8.73-12.63,3.21-14.79,1.79S124.49,144.09,125.65,142.87Z"/><polygon class="cls-22" points="146.64 144.45 133.06 145.38 130.53 141.59 147.89 140.41 146.64 144.45"/><path class="cls-20" d="M122.54,142.32s4.28,8.76,9.22,10.41a20.75,20.75,0,0,0,11.41.64c3.08-.68,6.92-2,9.1-5.64,2-3.31,3.41-9.6,3.41-9.6s-7.08,8.43-16.63,9.44C134.29,148.07,122.54,142.32,122.54,142.32Z"/><path class="cls-21" d="M122.66,142.32s6.71-3.28,9.73-5.71c3.59-2.9,6.89,2.55,6.89,2.55s.51-3.77,3.43-4,6,2.09,7.35,2.27c1.19.16,3.59,1.19,5.7.28-.59,1.41-3.49,4.16-5,5.14-1.27.85-8.94-.18-11.58,0s-11,2.32-11,2.32S123.1,143.23,122.66,142.32Z"/></g></symbol><symbol id="st3" data-name="st3" viewBox="0 0 270 695"><rect class="cls-1" width="270" height="695"/><g id="hair_copy_3" data-name="hair copy 3"><path class="cls-2" d="M121.6,22.62c-2.6,0-46.45.22-54.32,19.83-3.1,7.71,2.17,11.44-1.6,20.42-4.61,11-15,12.11-24.56,19.68-2.22,1.75-3.3,21.28,18,36.48-20.35,12-34.62,27.05-33,29.08,10.86,13.83,35.13,6.44,37.49,15.12,3.14,11.52-38.57,28-35.5,42.7,1.87,8.93,18.93,9.13,19.64,16.91,1.06,11.61-36.23,19-35.55,31.64.24,4.51,5.11,5.61,24.76,20.29,14.78,11,14.51,12.28,19.63,15.21,15.79,9,32.17,5.16,48.49,3.15,52.68-6.47,58.86,12,97.81,1.21,22.32-6.19,46.83-19.62,45.76-30.84-1-10.92-25.85-15.39-24.77-22.84s27.28-6.52,28.84-14.6c1.83-9.49-32.73-19.15-31.62-30.46,1.19-12.2,42.64-12.79,44.1-24.88,1.58-13.09-45.63-24-44.42-38.89,1-12.63,35.8-14.08,38.13-28.26,1.67-10.21-25.42-11.22-35-33-5.67-12.85-.39-20.82-7.79-27.17-10.13-8.71-26.22,4-19.56-.75,3.81-2.75,5.49-14.74-9.47-22.92-4-2.19-13.12,2.58-26.34,5.24C144.41,28.25,141.16,22.7,121.6,22.62Z"/></g><g id="legs_copy_3" data-name="legs copy 3"><rect class="cls-3" x="110.47" y="311.39" width="54.33" height="22.75"/><path class="cls-3" d="M156.75,609.22s10.07,21.92,5,38.93,18.47-1.52,18.47-1.52-12.93-13-2.1-40.24S156.75,609.22,156.75,609.22Z"/><path class="cls-3" d="M90.26,614.33s11,20.21,6.09,37.6,14.74,0,14.74,0l3.78-45.54Z"/><path class="cls-4" d="M147.1,610.5c4.26,2,31.7,2,38.22-1.1s2.27-10.2,0-11.9-23.24-3.69-34.86,0S147.1,610.5,147.1,610.5Z"/><path class="cls-4" d="M83.74,613.25c4.25,2,31.7,2,38.22-1.1s2.27-10.21,0-11.91-23.24-3.68-34.87,0S83.74,613.25,83.74,613.25Z"/><path class="cls-5" d="M104.29,341.25s-20.6,34.2-25.7,84.66c0,18.42,2.55,73.13,4.82,91.28-.57,10.2-2.55,61.79,2,84.47.9,4.48,38,0,38,0s6.23-114.59,7.93-126.14c.86-5.81.15-15.59,1.14-30.9.73-11.3,3.4-35.15,2.83-39.69s.29,23,3.5,29.77c3.39,7.2,3.59,47.9,3.59,54.14s3.39,46.62,4.82,72.57a355.67,355.67,0,0,1,0,39.11s34.58,1.14,37.42-.56,19.59-158.55,12.66-184c-2.84-32.6-20-74.75-20-74.75Z"/><polygon class="cls-6" points="176.13 341.34 103.94 341.34 109.56 330.46 164.45 330.46 176.13 341.34"/><path class="cls-7" d="M90.26,373.1s27.67-6.63,29.91-31.85"/><circle class="cls-8" cx="138.66" cy="324.52" r="1.76"/><path class="cls-7" d="M185.35,371.83h0c-8.87-3.61-23.35-16.39-24.61-30.58"/><polygon class="cls-3" points="180.26 492.05 156.07 498.1 160.74 501.88 153.8 509.81 162.5 509.81 156.07 515.48 180.26 507.55 174.51 505.28 180.26 501.12 174.51 497.72 180.26 492.05"/><polygon class="cls-3" points="91.44 503.77 114.5 496.59 110.47 503.77 116.76 507.55 112.61 512.84 116.76 515.48 92.2 521.15 102.39 515.48 90.26 515.48 100.89 508.87 91.44 503.77"/><path class="cls-9" d="M75.5,690.42s10.09,3.22,16.24,1.16c5.49-2.94,25.84-16.93,28.07-21.72s6.28-9.78-4.61-10.35S97.72,676,92.93,677.4s-18.21,4-18.21,4-5.42,5.59.78,9"/><path class="cls-10" d="M91.61,657.4s-.31-13.65,6.08-12.61,6.62,14.14,6.62,14.14,2.33-6.25,3.49-7.85,8.23-5.34,10.32,6.41-20,25.45-20,25.45S86.64,669.88,83.2,669.67,91.61,657.4,91.61,657.4Z"/><path d="M83.88,666.35s-11.67,7.31-9.16,15,14.28,4.5,19.19,4c5.19-2.53,3.47-.88,7.12-4.41.51-6.3-17.15-14.61-17.15-14.61"/><path class="cls-9" d="M85.49,664.22s9,3.14,9.54,5.07S98.21,667,98.21,667s-9.46-5.44-10.43-5.45S85.49,664.22,85.49,664.22Z"/><path class="cls-9" d="M89.4,659.73s8.67,2.22,9.95,4.46,2.58-2.55,2.58-2.55-8.43-4.35-10.32-4.24S89.4,659.73,89.4,659.73Z"/><polygon class="cls-7" points="124.74 330.36 121.53 330.36 120.02 340.3 123.04 340.3 124.74 330.36"/><polygon class="cls-7" points="156.02 330.84 159.23 330.84 160.74 340.78 157.72 340.78 156.02 330.84"/><polyline class="cls-7" points="143.51 330.36 145 386.22 140.03 392.18"/><line class="cls-7" x1="133.72" y1="330.84" x2="133.72" y2="378.85"/><circle class="cls-11" cx="138.66" cy="335.9" r="1.76"/><path class="cls-9" d="M197.69,686.75s-10.1,3.23-16.25,1.17C176,685,155.61,671,153.37,666.19s-6.27-9.77,4.62-10.35,17.48,16.45,22.27,17.89,18.2,4,18.2,4,5.43,5.59-.77,9"/><path class="cls-10" d="M181.58,653.73s.31-13.64-6.09-12.6-6.61,14.13-6.61,14.13-2.33-6.24-3.49-7.84-8.23-5.34-10.32,6.41,20,25.45,20,25.45S186.55,666.22,190,666,181.58,653.73,181.58,653.73Z"/><path d="M189.31,662.69s11.67,7.31,9.15,15-14.28,4.5-19.18,4c-5.19-2.54-3.47-.88-7.12-4.41-.51-6.3,17.15-14.61,17.15-14.61"/><path class="cls-9" d="M187.7,660.55s-9,3.15-9.55,5.08-3.17-2.32-3.17-2.32,9.46-5.44,10.43-5.46S187.7,660.55,187.7,660.55Z"/><path class="cls-9" d="M183.79,656.07s-8.67,2.22-9.95,4.46-2.59-2.55-2.59-2.55,8.44-4.35,10.33-4.25S183.79,656.07,183.79,656.07Z"/></g><g id="body_copy_3" data-name="body copy 3"><path class="cls-3" d="M120.26,160.59s4,24.37,2,27.78S114.87,200,111.47,202s-21,5.39-25.95,12.19-11.75,14.17-12,24.1,0,83.9,1.42,87,2,16.77,23.29,44.27c12-6.62,14.55-11.15,14.55-11.15l-21.4-35.67s10.77-79.37,10.77-82.77,17.55-5.11,20.68-1.14,18.44,17.58,20.14,17,24.66-16.16,24.66-16.16l7.94-1.13s-.29,30.9,1.41,35.72,4.54,26.93,6,30.89,0,58.68,0,58.68-8,11.13-9.08,17.86c-1.18,7.36,0,20.41,4.82,22.68,3.41-4-1.05-10.63,3.26-20.84-.34,10.77,3,33.05,4.82,32.46s3.83-22.11,3-25.23.84,25.08,4.25,25.23,2.13-28.06,2.13-28.06-3.69-24.37-3.83-27.22c-.28-5.95,4-27.28,6-33.45,3.09-9.87,2.84-57.82,2.84-57.82l3.12-45.07s-2.56-14.18-12.76-16.73-21.83-4-25.8-6.8-14.92-40.82-9.16-43.65S120.26,160.59,120.26,160.59Z"/><path class="cls-12" d="M110,315.17s49.7,3.78,55.84,1.51c4-10.34,11.2-68.78,11.81-77.48-.75-2.64.06-35.53.06-35.53h-5.35l-.75,32s-13.37-8.59-30.31,13c-5.69-15.21-19.91-18.11-27.24-14.74-.85-11-1.83-24-3.88-32.48-7.12,3.83-5.47,4.13-5.47,4.13s4.91,26.08,2.08,29.48-7,22.3-2.08,35.53S110,315.17,110,315.17Z"/></g><g id="face_copy_3" data-name="face copy 3"><path class="cls-13" d="M95.33,96.74s-6.29-6.21-10.1-5-6.29,15-3.71,21A40.6,40.6,0,0,0,88,122.86s4.91.54,7.4-11.66S95.33,96.74,95.33,96.74Z"/><path class="cls-13" d="M185.17,93.74s9.05-10.82,12.59-8.29,2,18.14.09,18.71-1.07,8.09-5.21,12.78-9.08-6.47-9.08-6.47Z"/><ellipse class="cls-13" cx="139.87" cy="103.32" rx="50.46" ry="67.75" transform="translate(-0.52 0.7) rotate(-0.29)"/><path class="cls-14" d="M149.25,25l-16.15.09a11.51,11.51,0,0,1-11.54-11.43h0A11.51,11.51,0,0,1,133,2.16l16.16-.09A11.53,11.53,0,0,1,160.68,13.5h0A11.51,11.51,0,0,1,149.25,25Z"/><path class="cls-14" d="M92.4,102.71s.9-45.93,25.54-49.45,50.7-3.94,56.55.56c4.4,4,15,27.14,15.08,37.34,3.21-7.67,8.19-5.71,8.19-5.71s-7.58-36-13.4-40.75c-5.27-3.09-27.68-11.2-32.78-11.17s-17.63-2-29.75,2.7c-12.74,4.88-24,11.34-27.76,18C90.2,61.05,83,77.8,85.83,87.15A77.1,77.1,0,0,0,92.4,102.71Z"/><polygon class="cls-15" points="157.26 33.05 124.09 33.22 124.05 25.16 157.22 25 157.26 33.05"/><path class="cls-16" d="M151.41,86.52s7.89-9.46,18.1-7.62,11.94,7.47,11.94,7.47"/><path class="cls-16" d="M99.24,89s7.88-9.46,18.1-7.63,11.94,7.48,11.94,7.48"/><ellipse class="cls-17" cx="115.19" cy="99.47" rx="8.69" ry="7.18" transform="translate(-0.5 0.58) rotate(-0.29)"/><ellipse class="cls-17" cx="165.53" cy="96.51" rx="8.69" ry="7.18" transform="translate(-0.48 0.83) rotate(-0.29)"/><path class="cls-18" d="M127.28,100.17a13.1,13.1,0,0,0-13-7.87c-9.71.61-8.92,6.47-10.62,6.85a4.72,4.72,0,0,1-3.41-.92s7.87,7.14,10,7.13"/><path class="cls-18" d="M151.46,97.59s5.82-7.4,12.43-8.19,11.93,4.86,12.69,4.85a15,15,0,0,0,3-.9s-6,8.18-7.87,8.19"/><path class="cls-19" d="M131.37,123.39s-2.06,3.6-1.1,5.87,6,.91,6,.91,4.26,1.44,6.24.35,5,.48,5.67.48c1.65,0,5.65-3.18,3.37-6.2"/><path d="M127.39,142.08s24.14,0,25.85-1.41S148.7,149,147.08,149s-11.67,2.4-13.55.85S126.26,143.22,127.39,142.08Z"/><polygon class="cls-22" points="146.61 144.99 133.54 145.05 131.34 141.11 148.06 141.03 146.61 144.99"/><path class="cls-20" d="M124.59,141.33s3.32,9.64,7.72,11.6a17.92,17.92,0,0,0,10.49,1.42,12.72,12.72,0,0,0,8.52-5.73c2-3.18,3.64-9.37,3.64-9.37s-6.51,9.1-15.26,9.5C135.35,149,124.59,141.33,124.59,141.33Z"/><path class="cls-21" d="M124.59,141.33s6.29-2.85,9.17-5.09c3.43-2.66,5.94,1.81,5.94,1.81a3.89,3.89,0,0,1,3.53-2.56c2.67,0,5.32,2.48,6.56,2.74,1.06.23,3.19,1.79,5.17,1a9.86,9.86,0,0,1-3.44,3.79c-1.21.76-9.34-1.13-11.75-1.13-2.61,0-10.93,2.23-10.93,2.23S124.94,142.27,124.59,141.33Z"/></g></symbol><symbol id="st4" data-name="st4" viewBox="0 0 270 695"><rect class="cls-1" width="270" height="695"/><g id="hair_copy_4" data-name="hair copy 4"><path class="cls-2" d="M133,21.63c-2.59-.24-46.29-3.89-55.87,15-3.76,7.41,1.15,11.59-3.4,20.2-5.56,10.51-16,10.73-26.21,17.43-2.35,1.54-5.16,20.9,14.75,37.93-21.34,10.16-36.88,23.88-35.47,26,9.59,14.73,34.43,9.53,36,18.38C64.87,168.31,21.86,181,23.62,196c1.07,9.06,18.05,10.76,18.07,18.58,0,11.66-37.78,15.75-38.22,28.37-.16,4.51,4.6,6,22.87,22.4,13.75,12.31,13.37,13.52,18.21,16.89,14.93,10.38,31.58,8,48,7.43,53.05-1.78,57.57,17.18,97.31,9.86,22.79-4.19,48.39-15.4,48.32-26.67-.06-11-24.38-17.62-22.66-24.94s27.75-4.08,30-12c2.67-9.29-30.9-22-28.8-33.13,2.28-12.05,43.61-9,46.13-20.89,2.73-12.9-43.32-28-40.8-42.67,2.14-12.49,36.91-10.86,40.48-24.77,2.57-10-24.33-13.42-32-36-4.51-13.3,1.45-20.77-5.35-27.76-9.32-9.57-26.48,1.71-19.42-2.48,4-2.39,6.77-14.19-7.4-23.66-3.8-2.54-13.31,1.41-26.7,2.88C155.16,29.26,152.42,23.44,133,21.63Z"/></g><g id="legs_copy_4" data-name="legs copy 4"><rect class="cls-3" x="110.47" y="311.39" width="54.33" height="22.75"/><path class="cls-3" d="M156.75,609.22s10.07,21.92,5,38.93,18.47-1.52,18.47-1.52-12.93-13-2.1-40.24S156.75,609.22,156.75,609.22Z"/><path class="cls-3" d="M90.26,614.33s11,20.21,6.09,37.6,14.74,0,14.74,0l3.78-45.54Z"/><path class="cls-4" d="M147.1,610.5c4.26,2,31.7,2,38.22-1.1s2.27-10.2,0-11.9-23.24-3.69-34.86,0S147.1,610.5,147.1,610.5Z"/><path class="cls-4" d="M83.74,613.25c4.25,2,31.7,2,38.22-1.1s2.27-10.21,0-11.91-23.24-3.68-34.87,0S83.74,613.25,83.74,613.25Z"/><path class="cls-5" d="M104.29,341.25s-20.6,34.2-25.7,84.66c0,18.42,2.55,73.13,4.82,91.28-.57,10.2-2.55,61.79,2,84.47.9,4.48,38,0,38,0s6.23-114.59,7.93-126.14c.86-5.81.15-15.59,1.14-30.9.73-11.3,3.4-35.15,2.83-39.69s.29,23,3.5,29.77c3.39,7.2,3.59,47.9,3.59,54.14s3.39,46.62,4.82,72.57a355.67,355.67,0,0,1,0,39.11s34.58,1.14,37.42-.56,19.59-158.55,12.66-184c-2.84-32.6-20-74.75-20-74.75Z"/><polygon class="cls-6" points="176.13 341.34 103.94 341.34 109.56 330.46 164.45 330.46 176.13 341.34"/><path class="cls-7" d="M90.26,373.1s27.67-6.63,29.91-31.85"/><circle class="cls-8" cx="138.66" cy="324.52" r="1.76"/><path class="cls-7" d="M185.35,371.83h0c-8.87-3.61-23.35-16.39-24.61-30.58"/><polygon class="cls-3" points="180.26 492.05 156.07 498.1 160.74 501.88 153.8 509.81 162.5 509.81 156.07 515.48 180.26 507.55 174.51 505.28 180.26 501.12 174.51 497.72 180.26 492.05"/><polygon class="cls-3" points="91.44 503.77 114.5 496.59 110.47 503.77 116.76 507.55 112.61 512.84 116.76 515.48 92.2 521.15 102.39 515.48 90.26 515.48 100.89 508.87 91.44 503.77"/><path class="cls-9" d="M75.5,690.42s10.09,3.22,16.24,1.16c5.49-2.94,25.84-16.93,28.07-21.72s6.28-9.78-4.61-10.35S97.72,676,92.93,677.4s-18.21,4-18.21,4-5.42,5.59.78,9"/><path class="cls-10" d="M91.61,657.4s-.31-13.65,6.08-12.61,6.62,14.14,6.62,14.14,2.33-6.25,3.49-7.85,8.23-5.34,10.32,6.41-20,25.45-20,25.45S86.64,669.88,83.2,669.67,91.61,657.4,91.61,657.4Z"/><path d="M83.88,666.35s-11.67,7.31-9.16,15,14.28,4.5,19.19,4c5.19-2.53,3.47-.88,7.12-4.41.51-6.3-17.15-14.61-17.15-14.61"/><path class="cls-9" d="M85.49,664.22s9,3.14,9.54,5.07S98.21,667,98.21,667s-9.46-5.44-10.43-5.45S85.49,664.22,85.49,664.22Z"/><path class="cls-9" d="M89.4,659.73s8.67,2.22,9.95,4.46,2.58-2.55,2.58-2.55-8.43-4.35-10.32-4.24S89.4,659.73,89.4,659.73Z"/><polygon class="cls-7" points="124.74 330.36 121.53 330.36 120.02 340.3 123.04 340.3 124.74 330.36"/><polygon class="cls-7" points="156.02 330.84 159.23 330.84 160.74 340.78 157.72 340.78 156.02 330.84"/><polyline class="cls-7" points="143.51 330.36 145 386.22 140.03 392.18"/><line class="cls-7" x1="133.72" y1="330.84" x2="133.72" y2="378.85"/><circle class="cls-11" cx="138.66" cy="335.9" r="1.76"/><path class="cls-9" d="M197.69,686.75s-10.1,3.23-16.25,1.17C176,685,155.61,671,153.37,666.19s-6.27-9.77,4.62-10.35,17.48,16.45,22.27,17.89,18.2,4,18.2,4,5.43,5.59-.77,9"/><path class="cls-10" d="M181.58,653.73s.31-13.64-6.09-12.6-6.61,14.13-6.61,14.13-2.33-6.24-3.49-7.84-8.23-5.34-10.32,6.41,20,25.45,20,25.45S186.55,666.22,190,666,181.58,653.73,181.58,653.73Z"/><path d="M189.31,662.69s11.67,7.31,9.15,15-14.28,4.5-19.18,4c-5.19-2.54-3.47-.88-7.12-4.41-.51-6.3,17.15-14.61,17.15-14.61"/><path class="cls-9" d="M187.7,660.55s-9,3.15-9.55,5.08-3.17-2.32-3.17-2.32,9.46-5.44,10.43-5.46S187.7,660.55,187.7,660.55Z"/><path class="cls-9" d="M183.79,656.07s-8.67,2.22-9.95,4.46-2.59-2.55-2.59-2.55,8.44-4.35,10.33-4.25S183.79,656.07,183.79,656.07Z"/></g><g id="body_copy_4" data-name="body copy 4"><path class="cls-3" d="M120.26,160.59s4,24.37,2,27.78S114.87,200,111.47,202s-21,5.39-25.95,12.19-11.75,14.17-12,24.1,0,83.9,1.42,87,2,16.77,23.29,44.27c12-6.62,14.55-11.15,14.55-11.15l-21.4-35.67s10.77-79.37,10.77-82.77,17.55-5.11,20.68-1.14,18.44,17.58,20.14,17,24.66-16.16,24.66-16.16l7.94-1.13s-.29,30.9,1.41,35.72,4.54,26.93,6,30.89,0,58.68,0,58.68-8,11.13-9.08,17.86c-1.18,7.36,0,20.41,4.82,22.68,3.41-4-1.05-10.63,3.26-20.84-.34,10.77,3,33.05,4.82,32.46s3.83-22.11,3-25.23.84,25.08,4.25,25.23,2.13-28.06,2.13-28.06-3.69-24.37-3.83-27.22c-.28-5.95,4-27.28,6-33.45,3.09-9.87,2.84-57.82,2.84-57.82l3.12-45.07s-2.56-14.18-12.76-16.73-21.83-4-25.8-6.8-14.92-40.82-9.16-43.65S120.26,160.59,120.26,160.59Z"/><path class="cls-12" d="M110,315.17s49.7,3.78,55.84,1.51c4-10.34,11.2-68.78,11.81-77.48-.75-2.64.06-35.53.06-35.53h-5.35l-.75,32s-13.37-8.59-30.31,13c-5.69-15.21-19.91-18.11-27.24-14.74-.85-11-1.83-24-3.88-32.48-7.12,3.83-5.47,4.13-5.47,4.13s4.91,26.08,2.08,29.48-7,22.3-2.08,35.53S110,315.17,110,315.17Z"/></g><g id="face_copy_4" data-name="face copy 4"><path class="cls-13" d="M100.22,93.13s-5.72-6.73-9.61-5.92-7.6,14.44-5.56,20.58a40.54,40.54,0,0,0,5.56,10.71s4.84,1,8.4-11S100.22,93.13,100.22,93.13Z"/><path class="cls-13" d="M190,98.1s10-10,13.27-7.14.33,18.23-1.57,18.64-1.79,8-6.32,12.27-8.47-7.25-8.47-7.25Z"/><ellipse class="cls-13" cx="144" cy="103.63" rx="67.75" ry="50.46" transform="matrix(0.08, -1, 1, 0.08, 28.71, 238.47)"/><path class="cls-14" d="M160.28,26.48l-16.1-1.34a11.52,11.52,0,0,1-10.48-12.4h0A11.51,11.51,0,0,1,146.09,2.25L162.2,3.6A11.52,11.52,0,0,1,172.68,16h0A11.52,11.52,0,0,1,160.28,26.48Z"/><path class="cls-14" d="M96.77,98.82s5-45.67,29.82-47,50.85.57,56.27,5.57c4,4.32,12.57,28.36,11.72,38.53,3.88-7.35,8.67-5,8.67-5s-4.37-36.49-9.74-41.78c-5-3.55-26.58-13.6-31.67-14s-17.39-3.5-29.87.06c-13.12,3.73-24.89,9.17-29.24,15.47-4.46,6.45-13.14,22.49-11.12,32.06A77.08,77.08,0,0,0,96.77,98.82Z"/><polygon class="cls-15" points="167.54 35.17 134.49 32.41 135.16 24.38 168.21 27.15 167.54 35.17"/><path class="cls-16" d="M157,87.92s8.7-8.72,18.71-6,11.23,8.5,11.23,8.5"/><path class="cls-16" d="M104.79,85.77s8.7-8.72,18.71-6,11.24,8.5,11.24,8.5"/><ellipse class="cls-17" cx="119.76" cy="97.62" rx="7.18" ry="8.69" transform="translate(12.48 208.8) rotate(-85.21)"/><ellipse class="cls-17" cx="170.17" cy="99.12" rx="7.18" ry="8.69" transform="translate(57.19 260.41) rotate(-85.21)"/><path class="cls-18" d="M131.75,99.38a13.11,13.11,0,0,0-12.27-9c-9.72-.25-9.45,5.65-11.18,5.89A4.72,4.72,0,0,1,105,95.05s7.21,7.81,9.28,8"/><path class="cls-18" d="M156.05,99s6.46-6.85,13.11-7,11.46,5.89,12.21,5.95a15.46,15.46,0,0,0,3.09-.63s-6.69,7.61-8.57,7.46"/><path class="cls-19" d="M133.76,122.87s-2.37,3.41-1.62,5.75,6,1.44,6,1.44,4.11,1.82,6.18.91,4.9.91,5.61,1c1.64.14,5.91-2.67,3.9-5.87"/><path d="M127.3,141.06s26.3,2.35,28.29,1.09-5.69,7.85-7.45,7.7-12.93,1.26-14.84-.46S126,142.09,127.3,141.06Z"/><polygon class="cls-22" points="147.03 145.73 134.01 144.64 132.16 140.52 148.82 141.92 147.03 145.73"/><path class="cls-20" d="M124.32,140s2.89,9.31,7.51,11.69A20.66,20.66,0,0,0,143,154.09c3.14-.22,7.11-.91,9.82-4.21,2.44-3,4.8-9,4.8-9s-8.24,7.27-17.81,6.83C135,147.51,124.32,140,124.32,140Z"/><path class="cls-21" d="M124.32,140s7.1-2.22,10.44-4.17c4-2.33,6.41,3.56,6.41,3.56s1.06-3.64,4-3.4,5.58,3,6.9,3.36c1.15.33,3.32,2.09,5.55,1.51-.8,1.31-3.75,3-5.36,3.77-1.37.65-9.11-1.31-11.74-1.54-2.84-.26-11.11.62-11.11.62S124.61,141,124.32,140Z"/></g></symbol><symbol id="st5" data-name="st5" viewBox="0 0 270 695"><rect class="cls-1" width="270" height="695"/><g id="hair_copy_5" data-name="hair copy 5"><path class="cls-2" d="M133,21.63c-2.59-.24-46.29-3.89-55.87,15-3.76,7.41,1.15,11.59-3.4,20.2-5.56,10.51-16,10.73-26.21,17.43-2.35,1.54-5.16,20.9,14.75,37.93-21.34,10.16-36.88,23.88-35.47,26,9.59,14.73,34.43,9.53,36,18.38C64.87,168.31,21.86,181,23.62,196c1.07,9.06,18.05,10.76,18.07,18.58,0,11.66-37.78,15.75-38.22,28.37-.16,4.51,4.6,6,22.87,22.4,13.75,12.31,13.37,13.52,18.21,16.89,14.93,10.38,31.58,8,48,7.43,53.05-1.78,57.57,17.18,97.31,9.86,22.79-4.19,48.39-15.4,48.32-26.67-.06-11-24.38-17.62-22.66-24.94s27.75-4.08,30-12c2.67-9.29-30.9-22-28.8-33.13,2.28-12.05,43.61-9,46.13-20.89,2.73-12.9-43.32-28-40.8-42.67,2.14-12.49,36.91-10.86,40.48-24.77,2.57-10-24.33-13.42-32-36-4.51-13.3,1.45-20.77-5.35-27.76-9.32-9.57-26.48,1.71-19.42-2.48,4-2.39,6.77-14.19-7.4-23.66-3.8-2.54-13.31,1.41-26.7,2.88C155.16,29.26,152.42,23.44,133,21.63Z"/></g><g id="legs_copy_5" data-name="legs copy 5"><rect class="cls-3" x="110.47" y="311.39" width="54.33" height="22.75"/><path class="cls-3" d="M156.75,609.22s10.07,21.92,5,38.93,18.47-1.52,18.47-1.52-12.93-13-2.1-40.24S156.75,609.22,156.75,609.22Z"/><path class="cls-3" d="M90.26,614.33s11,20.21,6.09,37.6,14.74,0,14.74,0l3.78-45.54Z"/><path class="cls-4" d="M147.1,610.5c4.26,2,31.7,2,38.22-1.1s2.27-10.2,0-11.9-23.24-3.69-34.86,0S147.1,610.5,147.1,610.5Z"/><path class="cls-4" d="M83.74,613.25c4.25,2,31.7,2,38.22-1.1s2.27-10.21,0-11.91-23.24-3.68-34.87,0S83.74,613.25,83.74,613.25Z"/><path class="cls-5" d="M104.29,341.25s-20.6,34.2-25.7,84.66c0,18.42,2.55,73.13,4.82,91.28-.57,10.2-2.55,61.79,2,84.47.9,4.48,38,0,38,0s6.23-114.59,7.93-126.14c.86-5.81.15-15.59,1.14-30.9.73-11.3,3.4-35.15,2.83-39.69s.29,23,3.5,29.77c3.39,7.2,3.59,47.9,3.59,54.14s3.39,46.62,4.82,72.57a355.67,355.67,0,0,1,0,39.11s34.58,1.14,37.42-.56,19.59-158.55,12.66-184c-2.84-32.6-20-74.75-20-74.75Z"/><polygon class="cls-6" points="176.13 341.34 103.94 341.34 109.56 330.46 164.45 330.46 176.13 341.34"/><path class="cls-7" d="M90.26,373.1s27.67-6.63,29.91-31.85"/><circle class="cls-8" cx="138.66" cy="324.52" r="1.76"/><path class="cls-7" d="M185.35,371.83h0c-8.87-3.61-23.35-16.39-24.61-30.58"/><polygon class="cls-3" points="180.26 492.05 156.07 498.1 160.74 501.88 153.8 509.81 162.5 509.81 156.07 515.48 180.26 507.55 174.51 505.28 180.26 501.12 174.51 497.72 180.26 492.05"/><polygon class="cls-3" points="91.44 503.77 114.5 496.59 110.47 503.77 116.76 507.55 112.61 512.84 116.76 515.48 92.2 521.15 102.39 515.48 90.26 515.48 100.89 508.87 91.44 503.77"/><path class="cls-9" d="M75.5,690.42s10.09,3.22,16.24,1.16c5.49-2.94,25.84-16.93,28.07-21.72s6.28-9.78-4.61-10.35S97.72,676,92.93,677.4s-18.21,4-18.21,4-5.42,5.59.78,9"/><path class="cls-10" d="M91.61,657.4s-.31-13.65,6.08-12.61,6.62,14.14,6.62,14.14,2.33-6.25,3.49-7.85,8.23-5.34,10.32,6.41-20,25.45-20,25.45S86.64,669.88,83.2,669.67,91.61,657.4,91.61,657.4Z"/><path d="M83.88,666.35s-11.67,7.31-9.16,15,14.28,4.5,19.19,4c5.19-2.53,3.47-.88,7.12-4.41.51-6.3-17.15-14.61-17.15-14.61"/><path class="cls-9" d="M85.49,664.22s9,3.14,9.54,5.07S98.21,667,98.21,667s-9.46-5.44-10.43-5.45S85.49,664.22,85.49,664.22Z"/><path class="cls-9" d="M89.4,659.73s8.67,2.22,9.95,4.46,2.58-2.55,2.58-2.55-8.43-4.35-10.32-4.24S89.4,659.73,89.4,659.73Z"/><polygon class="cls-7" points="124.74 330.36 121.53 330.36 120.02 340.3 123.04 340.3 124.74 330.36"/><polygon class="cls-7" points="156.02 330.84 159.23 330.84 160.74 340.78 157.72 340.78 156.02 330.84"/><polyline class="cls-7" points="143.51 330.36 145 386.22 140.03 392.18"/><line class="cls-7" x1="133.72" y1="330.84" x2="133.72" y2="378.85"/><circle class="cls-11" cx="138.66" cy="335.9" r="1.76"/><path class="cls-9" d="M197.69,686.75s-10.1,3.23-16.25,1.17C176,685,155.61,671,153.37,666.19s-6.27-9.77,4.62-10.35,17.48,16.45,22.27,17.89,18.2,4,18.2,4,5.43,5.59-.77,9"/><path class="cls-10" d="M181.58,653.73s.31-13.64-6.09-12.6-6.61,14.13-6.61,14.13-2.33-6.24-3.49-7.84-8.23-5.34-10.32,6.41,20,25.45,20,25.45S186.55,666.22,190,666,181.58,653.73,181.58,653.73Z"/><path d="M189.31,662.69s11.67,7.31,9.15,15-14.28,4.5-19.18,4c-5.19-2.54-3.47-.88-7.12-4.41-.51-6.3,17.15-14.61,17.15-14.61"/><path class="cls-9" d="M187.7,660.55s-9,3.15-9.55,5.08-3.17-2.32-3.17-2.32,9.46-5.44,10.43-5.46S187.7,660.55,187.7,660.55Z"/><path class="cls-9" d="M183.79,656.07s-8.67,2.22-9.95,4.46-2.59-2.55-2.59-2.55,8.44-4.35,10.33-4.25S183.79,656.07,183.79,656.07Z"/></g><g id="body_copy_5" data-name="body copy 5"><path class="cls-3" d="M120.26,160.59s4,24.37,2,27.78S114.87,200,111.47,202s-21,5.39-25.95,12.19-11.75,14.17-12,24.1,0,83.9,1.42,87,2,16.77,23.29,44.27c12-6.62,14.55-11.15,14.55-11.15l-21.4-35.67s10.77-79.37,10.77-82.77,17.55-5.11,20.68-1.14,18.44,17.58,20.14,17,24.66-16.16,24.66-16.16l7.94-1.13s-.29,30.9,1.41,35.72,4.54,26.93,6,30.89,0,58.68,0,58.68-8,11.13-9.08,17.86c-1.18,7.36,0,20.41,4.82,22.68,3.41-4-1.05-10.63,3.26-20.84-.34,10.77,3,33.05,4.82,32.46s3.83-22.11,3-25.23.84,25.08,4.25,25.23,2.13-28.06,2.13-28.06-3.69-24.37-3.83-27.22c-.28-5.95,4-27.28,6-33.45,3.09-9.87,2.84-57.82,2.84-57.82l3.12-45.07s-2.56-14.18-12.76-16.73-21.83-4-25.8-6.8-14.92-40.82-9.16-43.65S120.26,160.59,120.26,160.59Z"/><path class="cls-12" d="M110,315.17s49.7,3.78,55.84,1.51c4-10.34,11.2-68.78,11.81-77.48-.75-2.64.06-35.53.06-35.53h-5.35l-.75,32s-13.37-8.59-30.31,13c-5.69-15.21-19.91-18.11-27.24-14.74-.85-11-1.83-24-3.88-32.48-7.12,3.83-5.47,4.13-5.47,4.13s4.91,26.08,2.08,29.48-7,22.3-2.08,35.53S110,315.17,110,315.17Z"/></g><path class="cls-13" d="M100.22,93.13s-5.72-6.73-9.61-5.92-7.6,14.44-5.56,20.58a40.54,40.54,0,0,0,5.56,10.71s4.84,1,8.4-11S100.22,93.13,100.22,93.13Z"/><path class="cls-13" d="M190,98.1s10-10,13.27-7.14.33,18.23-1.57,18.64-1.79,8-6.32,12.27-8.47-7.25-8.47-7.25Z"/><ellipse class="cls-13" cx="144" cy="103.63" rx="67.75" ry="50.46" transform="matrix(0.08, -1, 1, 0.08, 28.71, 238.47)"/><path class="cls-14" d="M160.28,26.48l-16.1-1.34a11.52,11.52,0,0,1-10.48-12.4h0A11.51,11.51,0,0,1,146.09,2.25L162.2,3.6A11.52,11.52,0,0,1,172.68,16h0A11.52,11.52,0,0,1,160.28,26.48Z"/><path class="cls-14" d="M96.77,98.82s5-45.67,29.82-47,50.85.57,56.27,5.57c4,4.32,12.57,28.36,11.72,38.53,3.88-7.35,8.67-5,8.67-5s-4.37-36.49-9.74-41.78c-5-3.55-26.58-13.6-31.67-14s-17.39-3.5-29.87.06c-13.12,3.73-24.89,9.17-29.24,15.47-4.46,6.45-13.14,22.49-11.12,32.06A77.08,77.08,0,0,0,96.77,98.82Z"/><polygon class="cls-15" points="167.54 35.17 134.49 32.41 135.16 24.38 168.21 27.15 167.54 35.17"/><path class="cls-16" d="M157,87.92s8.7-8.72,18.71-6,11.23,8.5,11.23,8.5"/><path class="cls-16" d="M104.79,85.77s8.7-8.72,18.71-6,11.24,8.5,11.24,8.5"/><ellipse class="cls-17" cx="119.76" cy="97.62" rx="7.18" ry="8.69" transform="translate(12.48 208.8) rotate(-85.21)"/><ellipse class="cls-17" cx="170.17" cy="99.12" rx="7.18" ry="8.69" transform="translate(57.19 260.41) rotate(-85.21)"/><path class="cls-18" d="M131.75,99.38a13.11,13.11,0,0,0-12.27-9c-9.72-.25-9.45,5.65-11.18,5.89A4.72,4.72,0,0,1,105,95.05s7.21,7.81,9.28,8"/><path class="cls-18" d="M156.05,99s6.46-6.85,13.11-7,11.46,5.89,12.21,5.95a15.46,15.46,0,0,0,3.09-.63s-6.69,7.61-8.57,7.46"/><path class="cls-19" d="M133.76,122.87s-2.37,3.41-1.62,5.75,6,1.44,6,1.44,4.11,1.82,6.18.91,4.9.91,5.61,1c1.64.14,5.91-2.67,3.9-5.87"/><path class="cls-20" d="M124.32,140s2.89,9.31,7.51,11.69A20.66,20.66,0,0,0,143,154.09c3.14-.22,7.11-.91,9.82-4.21,2.44-3,4.8-9,4.8-9a37.88,37.88,0,0,1-17.44,3.67C135.39,144.35,124.32,140,124.32,140Z"/><path class="cls-21" d="M124.32,140s7.1-2.22,10.44-4.17c4-2.33,6.41,3.56,6.41,3.56s1.06-3.64,4-3.4,5.58,3,6.9,3.36c1.15.33,3.32,2.09,5.55,1.51-.8,1.31-3.75,3-5.36,3.77-1.37.65-9.75,1.29-12.37,1.06-2.85-.25-10.48-2-10.48-2S124.61,141,124.32,140Z"/></symbol></defs><title>sifSpritesheet</title><g id="Layer_2" data-name="Layer 2"><g id="sifTalk5"><g id="face_copy_5" data-name="face copy 5"><use width="270" height="695" xlink:href="#st1"/><use width="270" height="695" transform="translate(269.88)" xlink:href="#st2"/><use width="270" height="695" transform="translate(539.76)" xlink:href="#st3"/><use width="270" height="695" transform="translate(809.64)" xlink:href="#st4"/><use width="270" height="695" transform="translate(1079.52)" xlink:href="#st5"/></g></g></g></svg>