<svg xmlns="http://www.w3.org/2000/svg" xmlns:xlink="http://www.w3.org/1999/xlink" viewBox="0 0 400 800"><defs><style>.cls-1,.cls-14{fill:none;}.cls-2{fill:#e0be99;}.cls-3{fill:#eacea4;}.cls-4{fill:#241600;}.cls-5{fill:#1d1d1b;}.cls-6{fill:#fff;}.cls-7{fill:#f4c6d1;}.cls-8{fill:#e2bac6;}.cls-9{fill:#d1b088;}.cls-10{fill:#878584;}.cls-11{fill:#262828;}.cls-12{fill:#eff4f4;}.cls-13{fill:#2d1905;}.cls-14{stroke:#969696;stroke-miterlimit:10;stroke-width:3px;}.cls-15{fill:#b7acbc;}.cls-16{fill:#b0a1b7;}.cls-17{fill:#b632ed;}</style><symbol id="w1" data-name="w1" viewBox="0 0 400 800"><rect class="cls-1" width="400" height="800"/><path class="cls-2" d="M168.06,175.36s2.27,44.36,0,47,24.95,27.21,27.59,28.73,30.24-30.62,33.64-34-5.15-9.45-5.15-9.45-4.3-31-4.68-35.9S168.06,175.36,168.06,175.36Z"/><path class="cls-3" d="M139.59,114.17s-4.5.19-5.35,9.17,5.76,17.2,5.76,17.2,1.89.09,3.4-5.86-3.81-20.51-3.81-20.51h0"/><path class="cls-3" d="M239.21,110.46s3.4-4.7,4.82-2.9,2.84,8.93,2.17,13.34-5.29,15.67-7,15.57-5.19-4.25-5.19-5.76S239.21,110.46,239.21,110.46Z"/><path class="cls-3" d="M242,107.46s-9.07-59.52-45.35-61.22-49.32,18.7-55,30.61c0,2.27-4.54,47.62,0,56.69,8.22,23.25,22.67,46.77,34,53s27.78,7.65,38-1.42,21.54-51.59,21.54-51.59Z"/><path d="M179.61,105.2l-1.7-4.82s-15.6-5.1-28.07,0,0,3.4,0,3.4S169.12,98.11,179.61,105.2Z"/><path d="M195.65,105l1.42-4.9s15.27-6,28-1.63.19,3.39.19,3.39S205.71,97.31,195.65,105Z"/><path d="M244.6,53.3C236.54,39.79,230.65,34.87,219,30s-37.08-9.4-47.52-4.72S150.9,35.59,146.9,38.49a37.52,37.52,0,0,0-13.61,17.95c-2.73,8.08.87,55.73.87,55.73l9.41,6.69,2.27-45.59c1.91,5,7.56,16.41,9.56,17.56s-1.48-12.53,1.45-11.59c5.6,1.81,12,3.29,16.5,5,5.88,2.22,31.74,13.24,38.73,16.71-10.5-10.24-7.92-14.4-13.07-20.87,7,3.21,28.43,24.36,36.8,29.8-.29,1.78-.51,3.1-.55,3.73-.19,2.87,12.94-9.24,13.5-8.39S252.7,66.89,244.6,53.3Z"/><path class="cls-4" d="M219,113.63c0,2.44-1.56,3.26-4.24,3.26s-4.86-.55-4.86-3,1.87-3.13,4.55-3.13S219,111.2,219,113.63Z"/><path class="cls-5" d="M203.31,114.12a14,14,0,0,1,5.06-3,21.21,21.21,0,0,1,5.8-1.12,23.58,23.58,0,0,1,5.87.49c1,.17,1.89.51,2.83.77s1.81.73,2.69,1.14l-.09.25c-1-.12-1.9-.33-2.83-.49l-1.41-.2c-.47-.07-.93-.16-1.4-.19-.94-.08-1.86-.21-2.8-.21s-1.86,0-2.8,0a30.39,30.39,0,0,0-5.52.74,22.83,22.83,0,0,0-5.31,1.92Z"/><circle class="cls-6" cx="212.4" cy="112.71" r="0.32"/><path class="cls-4" d="M163.38,112.83c0,2.43,1.56,3.26,4.24,3.26s4.86-.56,4.86-3-1.87-3.12-4.55-3.12S163.38,110.39,163.38,112.83Z"/><path class="cls-5" d="M179,113.42a22.8,22.8,0,0,0-5.31-1.91,30.29,30.29,0,0,0-5.52-.75c-.93,0-1.87-.05-2.8,0s-1.86.13-2.8.21a13.4,13.4,0,0,0-1.4.18l-1.41.2c-.93.16-1.86.37-2.83.5l-.08-.26c.87-.41,1.77-.79,2.69-1.13a27.31,27.31,0,0,1,2.82-.77,23.12,23.12,0,0,1,5.87-.5,20.79,20.79,0,0,1,5.8,1.13,13.91,13.91,0,0,1,5.06,3Z"/><circle class="cls-6" cx="165.86" cy="112.41" r="0.24"/><path class="cls-6" d="M201.4,167.71c-3.62,1.35-5.32.6-9.68.6-4.86,0-6.22.14-9.29-.61-1.87-2.74-1.25-4.95-.29-5.34H201.8A36.21,36.21,0,0,0,201.4,167.71Z"/><path class="cls-7" d="M187.76,174.47s3.13,1.46,8.38.72,7.32-13.56,7.32-13.56-5.65,7-11.74,6.68-12.17-5.71-12.17-5.71S183.29,173.17,187.76,174.47Z"/><path class="cls-8" d="M178.76,162.91s3.91-4.56,6.36-4.42,4.88,1.48,5.82,1.61,3.59-2.08,5.37-1.9,6.74.42,7.94,2.53-1.47,3.34-2.08,3.54a57.77,57.77,0,0,1-10.78,1.22C188.28,165.31,179.62,166,178.76,162.91Z"/><path class="cls-9" d="M180,142.81c1.92.27,3.7.64,5.48.85a53,53,0,0,0,5.3.37,42.67,42.67,0,0,0,5.29-.25,32.05,32.05,0,0,0,5.39-1,11.13,11.13,0,0,1-4.95,3,17.59,17.59,0,0,1-5.77.85,19.22,19.22,0,0,1-5.73-1A15.85,15.85,0,0,1,180,142.81Z"/><path class="cls-2" d="M187.76,174.47a14.36,14.36,0,0,0,4.87.93,15,15,0,0,0,5.47-1.11"/><path class="cls-10" d="M172.06,777s9.7,4.25,16,2.83c5.77-2.36,27.45-14.17,30.17-18.71s7.25-9.07-3.52-10.77-19.09,14.55-24,15.5-18.52,2.08-18.52,2.08-6,5-.16,9.07"/><path class="cls-2" d="M278,727.63c-.53,1.73-9.26.66-9.26.66l-5.2,8.69,9.55,6.81Z"/><path class="cls-2" d="M199.06,735.06c.52,1.73,9.25.66,9.25.66l5.2,8.69-9.54,6.8Z"/><path class="cls-11" d="M157.48,417.27s-5.1,34.89-2.83,52.46S175.18,627.34,176,633s5.89,98.64,11.56,102,31.16,6.23,30.32,4.53.41-258.52.41-258.52,41.27,238.68,39.57,239.24-3.89,12.48-3.89,12.48,28.79.56,31.36-1.14S272,450.15,272,450.15L248.19,408.6H168.25Z"/><path class="cls-12" d="M191.5,745.83s1.09-13.61,7.35-11.91S204,748.66,204,748.66s3-6,4.28-7.44,8.74-4.46,9.6,7.44-22.56,23.25-22.56,23.25-10-14.18-13.43-14.74S191.5,745.83,191.5,745.83Z"/><path d="M182.88,753.94s-12.36,6.06-10.66,14,13.74,5.95,18.67,5.95c5.43-2,3.54-.52,7.54-3.65,1.15-6.22-15.55-16.3-15.55-16.3"/><path class="cls-10" d="M184.7,752s8.59,4,9,6,3.4-2,3.4-2-8.85-6.39-9.81-6.5S184.7,752,184.7,752Z"/><path class="cls-10" d="M189.05,747.92s8.4,3.1,9.44,5.47,2.83-2.27,2.83-2.27-7.93-5.2-9.82-5.29S189.05,747.92,189.05,747.92Z"/><path class="cls-10" d="M305,769.58s-9.71,4.25-16,2.84c-5.76-2.37-27.44-14.18-30.16-18.71s-7.26-9.07,3.52-10.77,19.09,14.55,24,15.49,18.52,2.08,18.52,2.08,6,5,.16,9.07"/><path class="cls-12" d="M285.53,738.4s-1.1-13.61-7.35-11.91-5.12,14.74-5.12,14.74-3-6-4.28-7.44-8.74-4.46-9.6,7.44,22.56,23.25,22.56,23.25,10-14.17,13.43-14.74S285.53,738.4,285.53,738.4Z"/><path d="M294.15,746.51s12.36,6.06,10.66,14-13.74,6-18.67,6c-5.43-2-3.54-.51-7.54-3.65-1.16-6.21,15.55-16.3,15.55-16.3"/><path class="cls-10" d="M292.32,744.55s-8.59,4.05-9,6-3.41-2-3.41-2,8.85-6.38,9.82-6.5S292.32,744.55,292.32,744.55Z"/><path class="cls-10" d="M288,740.49s-8.39,3.11-9.43,5.47-2.84-2.27-2.84-2.27,7.94-5.2,9.83-5.29S288,740.49,288,740.49Z"/><polygon class="cls-13" points="250.46 414.6 208.2 417.57 162.56 413.08 164.07 399.62 248.19 400 250.46 414.6"/><polygon class="cls-14" points="218.26 416.07 205.87 417.27 195.48 416.26 195.29 403.2 205.87 403.97 217.35 403.13 218.26 416.07"/><line class="cls-14" x1="206.77" y1="410.2" x2="217.85" y2="410.2"/><path class="cls-2" d="M113.21,314.4s5.72,61.22,6.85,70.29,43.23,62.37,43.73,65.2,10.92-18.71,10.92-18.71-17-38.55-32.41-44.79c6.49-14.17,8.66-79.67,8.66-79.67Z"/><path class="cls-2" d="M255.56,312.16s-5.67,44.27,6.24,68.89c-2.84,22.24-5.67,45.6,0,60.34-1.14,14.36-10,24-7.37,33.44,6.23,2.46,10.2-19.65,13.6-17.38s5.22,37.79,11.15,37.79c4.35-4.34-3.21-54.61-2.08-58s2.6-49.54,2.6-56.18c0-11.36,8.17-78.56,4.77-81.4S255.56,312.16,255.56,312.16Z"/><path class="cls-15" d="M181.88,239.56s4.45-8.5,10.48-5.67,7.15,19.46,7.15,19.46,5.76,145,8.27,147.78S165,400,165,400s-9.9-95.48-13.33-110c2,14.45,1.65,28.81,0,34.58-13.89,4-35.43-.57-37.13.57s-3.12-59.84-1.31-66.05c1.7-5.86,0-18.14,16.62-33.73,7.2-1.94,33.52-9.17,34.65-3.12S181.88,239.56,181.88,239.56Z"/><path class="cls-16" d="M217,238.86s-5.16-8.09-10.93-4.75-7.24,19.24-7.24,19.24,8.49,145.68,6.23,148.72S248.19,400,248.19,400s1.13-98.72,3.31-113.46c-.74,14.57-1.67,30,.47,35.6,14.18,2.76,37.75-4.75,39.54-3.77s-2-59.88-4.36-65.91c-2.2-5.7-8.21-26.2-26.11-40.3-7.34-1.32-34.12-10.85-34.73-4.73S217,238.86,217,238.86Z"/><path class="cls-17" d="M190,233.32c-4.38-1.59-16-7.11-19.65-13.42a15.29,15.29,0,0,1-1.27-13.41s-9.31,8.5-8.93,13.23c-.38,9.07,6.58,15,11.71,21.35,5.91,3.78,14,9.07,14,9.07S189.07,234.83,190,233.32Z"/><path class="cls-17" d="M204.55,235.39s14-12.51,18.13-19.17c4.63-7.51.42-11.81.42-11.81s6.19,2.08,7.46,12.28c.38,9.07-6.15,16.41-11.28,22.77-5.1,4.79-11.4,14.08-11.4,14.08Z"/></symbol></defs><title>william_sprite</title><g id="Layer_2" data-name="Layer 2"><g id="body"><use width="400" height="800" xlink:href="#w1"/></g></g></svg>